<svg xmlns="http://www.w3.org/2000/svg" width="1200" height="630" viewBox="0 0 1200 630" fill="none">
  <rect width="1200" height="630" fill="#F8FAFC"/>
  <text x="60" y="80" fill="#111827" font-family="Arial, sans-serif" font-size="34" font-weight="700">AdminOps Workflow Map</text>
  <g font-family="Arial, sans-serif" font-size="18" fill="#111827">
    <rect x="60" y="180" width="160" height="72" rx="10" fill="#E0EAFF"/><text x="100" y="224">Input</text>
    <rect x="260" y="180" width="180" height="72" rx="10" fill="#DBEAFE"/><text x="300" y="224">Validation</text>
    <rect x="480" y="180" width="160" height="72" rx="10" fill="#BFDBFE"/><text x="525" y="224">Routing</text>
    <rect x="680" y="180" width="170" height="72" rx="10" fill="#93C5FD"/><text x="725" y="224">Approval</text>
    <rect x="890" y="180" width="160" height="72" rx="10" fill="#60A5FA"/><text x="940" y="224">Posting</text>
    <rect x="540" y="320" width="180" height="72" rx="10" fill="#2563EB"/><text x="580" y="364" fill="#fff">Reporting</text>
  </g>
  <g stroke="#1F2937" stroke-width="3">
    <path d="M220 216H252"/><path d="M440 216H472"/><path d="M640 216H672"/><path d="M850 216H882"/>
    <path d="M970 252V320H730"/>
  </g>
</svg>